<?xml version="1.0" encoding="UTF-8" standalone="no"?>
<!DOCTYPE svg PUBLIC "-//W3C//DTD SVG 1.1//EN"
 "http://www.w3.org/Graphics/SVG/1.1/DTD/svg11.dtd">
<!-- Generated by graphviz version 7.1.0 (20230121.1956)
 -->
<!-- Pages: 1 -->
<svg width="895pt" height="951pt"
 viewBox="0.00 0.00 895.00 950.50" xmlns="http://www.w3.org/2000/svg" xmlns:xlink="http://www.w3.org/1999/xlink">
<g id="graph0" class="graph" transform="scale(1 1) rotate(0) translate(4 946.5)">
<polygon fill="#ffffff" stroke="none" points="-4,4 -4,-946.5 891,-946.5 891,4 -4,4"/>
<!-- X1 -->
<g id="node1" class="node">
<title>X1</title>
<polygon fill="#ffffff" stroke="black" points="198,-698.5 0,-698.5 0,-422.5 198,-422.5 198,-698.5"/>
<polygon fill="none" stroke="black" points="0,-675.5 0,-698.5 198,-698.5 198,-675.5 0,-675.5"/>
<text text-anchor="start" x="89.5" y="-683.3" font-family="arial" font-size="14.00">X1</text>
<polygon fill="none" stroke="black" points="0,-652.5 0,-675.5 98,-675.5 98,-652.5 0,-652.5"/>
<text text-anchor="start" x="4" y="-660.3" font-family="arial" font-size="14.00">Molex KK 254</text>
<polygon fill="none" stroke="black" points="98,-652.5 98,-675.5 150,-675.5 150,-652.5 98,-652.5"/>
<text text-anchor="start" x="102" y="-660.3" font-family="arial" font-size="14.00">female</text>
<polygon fill="none" stroke="black" points="150,-652.5 150,-675.5 198,-675.5 198,-652.5 150,-652.5"/>
<text text-anchor="start" x="154" y="-660.3" font-family="arial" font-size="14.00">10&#45;pin</text>
<polygon fill="none" stroke="black" points="0,-629.5 0,-652.5 109,-652.5 109,-629.5 0,-629.5"/>
<text text-anchor="start" x="38.5" y="-637.3" font-family="arial" font-size="14.00">GND</text>
<polygon fill="none" stroke="black" points="109,-629.5 109,-652.5 198,-652.5 198,-629.5 109,-629.5"/>
<text text-anchor="start" x="149" y="-637.3" font-family="arial" font-size="14.00">1</text>
<polygon fill="none" stroke="black" points="0,-606.5 0,-629.5 109,-629.5 109,-606.5 0,-606.5"/>
<text text-anchor="start" x="41" y="-614.3" font-family="arial" font-size="14.00">+5V</text>
<polygon fill="none" stroke="black" points="109,-606.5 109,-629.5 198,-629.5 198,-606.5 109,-606.5"/>
<text text-anchor="start" x="149" y="-614.3" font-family="arial" font-size="14.00">2</text>
<polygon fill="none" stroke="black" points="0,-583.5 0,-606.5 109,-606.5 109,-583.5 0,-583.5"/>
<text text-anchor="start" x="40" y="-591.3" font-family="arial" font-size="14.00">SCL</text>
<polygon fill="none" stroke="black" points="109,-583.5 109,-606.5 198,-606.5 198,-583.5 109,-583.5"/>
<text text-anchor="start" x="149" y="-591.3" font-family="arial" font-size="14.00">3</text>
<polygon fill="none" stroke="black" points="0,-560.5 0,-583.5 109,-583.5 109,-560.5 0,-560.5"/>
<text text-anchor="start" x="39" y="-568.3" font-family="arial" font-size="14.00">SDA</text>
<polygon fill="none" stroke="black" points="109,-560.5 109,-583.5 198,-583.5 198,-560.5 109,-560.5"/>
<text text-anchor="start" x="149" y="-568.3" font-family="arial" font-size="14.00">4</text>
<polygon fill="none" stroke="black" points="0,-537.5 0,-560.5 109,-560.5 109,-537.5 0,-537.5"/>
<text text-anchor="start" x="36" y="-545.3" font-family="arial" font-size="14.00">MISO</text>
<polygon fill="none" stroke="black" points="109,-537.5 109,-560.5 198,-560.5 198,-537.5 109,-537.5"/>
<text text-anchor="start" x="149" y="-545.3" font-family="arial" font-size="14.00">5</text>
<polygon fill="none" stroke="black" points="0,-514.5 0,-537.5 109,-537.5 109,-514.5 0,-514.5"/>
<text text-anchor="start" x="36" y="-522.3" font-family="arial" font-size="14.00">MOSI</text>
<polygon fill="none" stroke="black" points="109,-514.5 109,-537.5 198,-537.5 198,-514.5 109,-514.5"/>
<text text-anchor="start" x="149" y="-522.3" font-family="arial" font-size="14.00">6</text>
<polygon fill="none" stroke="black" points="0,-491.5 0,-514.5 109,-514.5 109,-491.5 0,-491.5"/>
<text text-anchor="start" x="39" y="-499.3" font-family="arial" font-size="14.00">SCK</text>
<polygon fill="none" stroke="black" points="109,-491.5 109,-514.5 198,-514.5 198,-491.5 109,-491.5"/>
<text text-anchor="start" x="149" y="-499.3" font-family="arial" font-size="14.00">7</text>
<polygon fill="none" stroke="black" points="0,-468.5 0,-491.5 109,-491.5 109,-468.5 0,-468.5"/>
<text text-anchor="start" x="42" y="-476.3" font-family="arial" font-size="14.00">N/C</text>
<polygon fill="none" stroke="black" points="109,-468.5 109,-491.5 198,-491.5 198,-468.5 109,-468.5"/>
<text text-anchor="start" x="149" y="-476.3" font-family="arial" font-size="14.00">8</text>
<polygon fill="none" stroke="black" points="0,-445.5 0,-468.5 109,-468.5 109,-445.5 0,-445.5"/>
<text text-anchor="start" x="45" y="-453.3" font-family="arial" font-size="14.00">TX</text>
<polygon fill="none" stroke="black" points="109,-445.5 109,-468.5 198,-468.5 198,-445.5 109,-445.5"/>
<text text-anchor="start" x="149" y="-453.3" font-family="arial" font-size="14.00">9</text>
<polygon fill="none" stroke="black" points="0,-422.5 0,-445.5 109,-445.5 109,-422.5 0,-422.5"/>
<text text-anchor="start" x="44" y="-430.3" font-family="arial" font-size="14.00">RX</text>
<polygon fill="none" stroke="black" points="109,-422.5 109,-445.5 198,-445.5 198,-422.5 109,-422.5"/>
<text text-anchor="start" x="145" y="-430.3" font-family="arial" font-size="14.00">10</text>
</g>
<!-- W1 -->
<g id="node8" class="node">
<title>W1</title>
<polygon fill="#ffffff" stroke="black" stroke-dasharray="5,2" points="551,-734.5 344,-734.5 344,-550.5 551,-550.5 551,-734.5"/>
<polygon fill="none" stroke="black" points="344.5,-711.5 344.5,-734.5 551.5,-734.5 551.5,-711.5 344.5,-711.5"/>
<text text-anchor="start" x="436.5" y="-719.3" font-family="arial" font-size="14.00">W1</text>
<polygon fill="none" stroke="black" points="344.5,-688.5 344.5,-711.5 368.5,-711.5 368.5,-688.5 344.5,-688.5"/>
<text text-anchor="start" x="348.5" y="-696.3" font-family="arial" font-size="14.00">4x</text>
<polygon fill="none" stroke="black" points="368.5,-688.5 368.5,-711.5 506.5,-711.5 506.5,-688.5 368.5,-688.5"/>
<text text-anchor="start" x="372.5" y="-696.3" font-family="arial" font-size="14.00">0.14 mm² (26 AWG)</text>
<polygon fill="none" stroke="black" points="506.5,-688.5 506.5,-711.5 551.5,-711.5 551.5,-688.5 506.5,-688.5"/>
<text text-anchor="start" x="510.5" y="-696.3" font-family="arial" font-size="14.00">0.2 m</text>
<text text-anchor="start" x="379" y="-675.3" font-family="arial" font-size="14.00"> </text>
<text text-anchor="start" x="348" y="-656.3" font-family="arial" font-size="14.00">X1:1:GND</text>
<text text-anchor="start" x="421.5" y="-656.3" font-family="arial" font-size="14.00"> &#160;&#160;&#160;&#160;BK &#160;&#160;&#160;</text>
<text text-anchor="start" x="482.5" y="-656.3" font-family="arial" font-size="14.00">X2:1:GND</text>
<polygon fill="#000000" stroke="none" points="344.5,-648.5 344.5,-650.5 551.5,-650.5 551.5,-648.5 344.5,-648.5"/>
<polygon fill="#000000" stroke="none" points="344.5,-646.5 344.5,-648.5 551.5,-648.5 551.5,-646.5 344.5,-646.5"/>
<polygon fill="#000000" stroke="none" points="344.5,-644.5 344.5,-646.5 551.5,-646.5 551.5,-644.5 344.5,-644.5"/>
<text text-anchor="start" x="350.5" y="-631.3" font-family="arial" font-size="14.00">X1:2:+5V</text>
<text text-anchor="start" x="421" y="-631.3" font-family="arial" font-size="14.00"> &#160;&#160;&#160;&#160;RD &#160;&#160;&#160;</text>
<text text-anchor="start" x="485" y="-631.3" font-family="arial" font-size="14.00">X2:2:+5V</text>
<polygon fill="#000000" stroke="none" points="344.5,-623.5 344.5,-625.5 551.5,-625.5 551.5,-623.5 344.5,-623.5"/>
<polygon fill="#ff0000" stroke="none" points="344.5,-621.5 344.5,-623.5 551.5,-623.5 551.5,-621.5 344.5,-621.5"/>
<polygon fill="#000000" stroke="none" points="344.5,-619.5 344.5,-621.5 551.5,-621.5 551.5,-619.5 344.5,-619.5"/>
<text text-anchor="start" x="349.5" y="-606.3" font-family="arial" font-size="14.00">X1:3:SCL</text>
<text text-anchor="start" x="422" y="-606.3" font-family="arial" font-size="14.00"> &#160;&#160;&#160;&#160;YE &#160;&#160;&#160;</text>
<text text-anchor="start" x="484" y="-606.3" font-family="arial" font-size="14.00">X2:3:SCL</text>
<polygon fill="#000000" stroke="none" points="344.5,-598.5 344.5,-600.5 551.5,-600.5 551.5,-598.5 344.5,-598.5"/>
<polygon fill="#ffff00" stroke="none" points="344.5,-596.5 344.5,-598.5 551.5,-598.5 551.5,-596.5 344.5,-596.5"/>
<polygon fill="#000000" stroke="none" points="344.5,-594.5 344.5,-596.5 551.5,-596.5 551.5,-594.5 344.5,-594.5"/>
<text text-anchor="start" x="349" y="-581.3" font-family="arial" font-size="14.00">X1:4:SDA</text>
<text text-anchor="start" x="421" y="-581.3" font-family="arial" font-size="14.00"> &#160;&#160;&#160;&#160;GN &#160;&#160;&#160;</text>
<text text-anchor="start" x="483.5" y="-581.3" font-family="arial" font-size="14.00">X2:4:SDA</text>
<polygon fill="#000000" stroke="none" points="344.5,-573.5 344.5,-575.5 551.5,-575.5 551.5,-573.5 344.5,-573.5"/>
<polygon fill="#00ff00" stroke="none" points="344.5,-571.5 344.5,-573.5 551.5,-573.5 551.5,-571.5 344.5,-571.5"/>
<polygon fill="#000000" stroke="none" points="344.5,-569.5 344.5,-571.5 551.5,-571.5 551.5,-569.5 344.5,-569.5"/>
<text text-anchor="start" x="379" y="-556.3" font-family="arial" font-size="14.00"> </text>
</g>
<!-- X1&#45;&#45;W1 -->
<g id="edge1" class="edge">
<title>X1:e&#45;&#45;W1:w</title>
<path fill="none" stroke="#000000" stroke-width="2" d="M198,-639.5C263.42,-639.63 279.48,-645.63 343.5,-645.5"/>
<path fill="none" stroke="#000000" stroke-width="2" d="M198,-641.5C262.72,-641.5 278.78,-647.5 343.5,-647.5"/>
<path fill="none" stroke="#000000" stroke-width="2" d="M198,-643.5C262.02,-643.37 278.08,-649.37 343.5,-649.5"/>
</g>
<!-- X1&#45;&#45;W1 -->
<g id="edge3" class="edge">
<title>X1:e&#45;&#45;W1:w</title>
<path fill="none" stroke="#000000" stroke-width="2" d="M198,-616.5C263.17,-616.56 279.29,-620.56 343.5,-620.5"/>
<path fill="none" stroke="#ff0000" stroke-width="2" d="M198,-618.5C262.69,-618.5 278.81,-622.5 343.5,-622.5"/>
<path fill="none" stroke="#000000" stroke-width="2" d="M198,-620.5C262.21,-620.44 278.33,-624.44 343.5,-624.5"/>
</g>
<!-- X1&#45;&#45;W1 -->
<g id="edge5" class="edge">
<title>X1:e&#45;&#45;W1:w</title>
<path fill="none" stroke="#000000" stroke-width="2" d="M198,-593.5C262.92,-593.52 279.07,-595.52 343.5,-595.5"/>
<path fill="none" stroke="#ffff00" stroke-width="2" d="M198,-595.5C262.67,-595.5 278.83,-597.5 343.5,-597.5"/>
<path fill="none" stroke="#000000" stroke-width="2" d="M198,-597.5C262.43,-597.48 278.58,-599.48 343.5,-599.5"/>
</g>
<!-- X1&#45;&#45;W1 -->
<g id="edge7" class="edge">
<title>X1:e&#45;&#45;W1:w</title>
<path fill="none" stroke="#000000" stroke-width="2" d="M198,-570.5C262.67,-570.5 278.83,-570.5 343.5,-570.5"/>
<path fill="none" stroke="#00ff00" stroke-width="2" d="M198,-572.5C262.67,-572.5 278.83,-572.5 343.5,-572.5"/>
<path fill="none" stroke="#000000" stroke-width="2" d="M198,-574.5C262.67,-574.5 278.83,-574.5 343.5,-574.5"/>
</g>
<!-- W2 -->
<g id="node9" class="node">
<title>W2</title>
<polygon fill="#ffffff" stroke="black" stroke-dasharray="5,2" points="551,-942.5 344,-942.5 344,-758.5 551,-758.5 551,-942.5"/>
<polygon fill="none" stroke="black" points="344.5,-919.5 344.5,-942.5 551.5,-942.5 551.5,-919.5 344.5,-919.5"/>
<text text-anchor="start" x="436.5" y="-927.3" font-family="arial" font-size="14.00">W2</text>
<polygon fill="none" stroke="black" points="344.5,-896.5 344.5,-919.5 368.5,-919.5 368.5,-896.5 344.5,-896.5"/>
<text text-anchor="start" x="348.5" y="-904.3" font-family="arial" font-size="14.00">4x</text>
<polygon fill="none" stroke="black" points="368.5,-896.5 368.5,-919.5 506.5,-919.5 506.5,-896.5 368.5,-896.5"/>
<text text-anchor="start" x="372.5" y="-904.3" font-family="arial" font-size="14.00">0.14 mm² (26 AWG)</text>
<polygon fill="none" stroke="black" points="506.5,-896.5 506.5,-919.5 551.5,-919.5 551.5,-896.5 506.5,-896.5"/>
<text text-anchor="start" x="510.5" y="-904.3" font-family="arial" font-size="14.00">0.4 m</text>
<text text-anchor="start" x="379" y="-883.3" font-family="arial" font-size="14.00"> </text>
<text text-anchor="start" x="348" y="-864.3" font-family="arial" font-size="14.00">X1:1:GND</text>
<text text-anchor="start" x="421.5" y="-864.3" font-family="arial" font-size="14.00"> &#160;&#160;&#160;&#160;BK &#160;&#160;&#160;</text>
<text text-anchor="start" x="482.5" y="-864.3" font-family="arial" font-size="14.00">X3:1:GND</text>
<polygon fill="#000000" stroke="none" points="344.5,-856.5 344.5,-858.5 551.5,-858.5 551.5,-856.5 344.5,-856.5"/>
<polygon fill="#000000" stroke="none" points="344.5,-854.5 344.5,-856.5 551.5,-856.5 551.5,-854.5 344.5,-854.5"/>
<polygon fill="#000000" stroke="none" points="344.5,-852.5 344.5,-854.5 551.5,-854.5 551.5,-852.5 344.5,-852.5"/>
<text text-anchor="start" x="350.5" y="-839.3" font-family="arial" font-size="14.00">X1:2:+5V</text>
<text text-anchor="start" x="421" y="-839.3" font-family="arial" font-size="14.00"> &#160;&#160;&#160;&#160;RD &#160;&#160;&#160;</text>
<text text-anchor="start" x="485" y="-839.3" font-family="arial" font-size="14.00">X3:2:+5V</text>
<polygon fill="#000000" stroke="none" points="344.5,-831.5 344.5,-833.5 551.5,-833.5 551.5,-831.5 344.5,-831.5"/>
<polygon fill="#ff0000" stroke="none" points="344.5,-829.5 344.5,-831.5 551.5,-831.5 551.5,-829.5 344.5,-829.5"/>
<polygon fill="#000000" stroke="none" points="344.5,-827.5 344.5,-829.5 551.5,-829.5 551.5,-827.5 344.5,-827.5"/>
<text text-anchor="start" x="349.5" y="-814.3" font-family="arial" font-size="14.00">X1:3:SCL</text>
<text text-anchor="start" x="422" y="-814.3" font-family="arial" font-size="14.00"> &#160;&#160;&#160;&#160;YE &#160;&#160;&#160;</text>
<text text-anchor="start" x="484" y="-814.3" font-family="arial" font-size="14.00">X3:3:SCL</text>
<polygon fill="#000000" stroke="none" points="344.5,-806.5 344.5,-808.5 551.5,-808.5 551.5,-806.5 344.5,-806.5"/>
<polygon fill="#ffff00" stroke="none" points="344.5,-804.5 344.5,-806.5 551.5,-806.5 551.5,-804.5 344.5,-804.5"/>
<polygon fill="#000000" stroke="none" points="344.5,-802.5 344.5,-804.5 551.5,-804.5 551.5,-802.5 344.5,-802.5"/>
<text text-anchor="start" x="349" y="-789.3" font-family="arial" font-size="14.00">X1:4:SDA</text>
<text text-anchor="start" x="421" y="-789.3" font-family="arial" font-size="14.00"> &#160;&#160;&#160;&#160;GN &#160;&#160;&#160;</text>
<text text-anchor="start" x="483.5" y="-789.3" font-family="arial" font-size="14.00">X3:4:SDA</text>
<polygon fill="#000000" stroke="none" points="344.5,-781.5 344.5,-783.5 551.5,-783.5 551.5,-781.5 344.5,-781.5"/>
<polygon fill="#00ff00" stroke="none" points="344.5,-779.5 344.5,-781.5 551.5,-781.5 551.5,-779.5 344.5,-779.5"/>
<polygon fill="#000000" stroke="none" points="344.5,-777.5 344.5,-779.5 551.5,-779.5 551.5,-777.5 344.5,-777.5"/>
<text text-anchor="start" x="379" y="-764.3" font-family="arial" font-size="14.00"> </text>
</g>
<!-- X1&#45;&#45;W2 -->
<g id="edge9" class="edge">
<title>X1:e&#45;&#45;W2:w</title>
<path fill="none" stroke="#000000" stroke-width="2" d="M198,-639.5C314.87,-642.23 230.35,-856.23 343.5,-853.5"/>
<path fill="none" stroke="#000000" stroke-width="2" d="M198,-641.5C313.01,-641.5 228.49,-855.5 343.5,-855.5"/>
<path fill="none" stroke="#000000" stroke-width="2" d="M198,-643.5C311.15,-640.77 226.63,-854.77 343.5,-857.5"/>
</g>
<!-- X1&#45;&#45;W2 -->
<g id="edge11" class="edge">
<title>X1:e&#45;&#45;W2:w</title>
<path fill="none" stroke="#000000" stroke-width="2" d="M198,-616.5C314.14,-619.23 231.08,-831.23 343.5,-828.5"/>
<path fill="none" stroke="#ff0000" stroke-width="2" d="M198,-618.5C312.28,-618.5 229.22,-830.5 343.5,-830.5"/>
<path fill="none" stroke="#000000" stroke-width="2" d="M198,-620.5C310.42,-617.77 227.36,-829.77 343.5,-832.5"/>
</g>
<!-- X1&#45;&#45;W2 -->
<g id="edge13" class="edge">
<title>X1:e&#45;&#45;W2:w</title>
<path fill="none" stroke="#000000" stroke-width="2" d="M198,-593.5C313.41,-596.22 231.82,-806.22 343.5,-803.5"/>
<path fill="none" stroke="#ffff00" stroke-width="2" d="M198,-595.5C311.55,-595.5 229.95,-805.5 343.5,-805.5"/>
<path fill="none" stroke="#000000" stroke-width="2" d="M198,-597.5C309.68,-594.78 228.09,-804.78 343.5,-807.5"/>
</g>
<!-- X1&#45;&#45;W2 -->
<g id="edge15" class="edge">
<title>X1:e&#45;&#45;W2:w</title>
<path fill="none" stroke="#000000" stroke-width="2" d="M198,-570.5C312.68,-573.22 232.55,-781.22 343.5,-778.5"/>
<path fill="none" stroke="#00ff00" stroke-width="2" d="M198,-572.5C310.82,-572.5 230.68,-780.5 343.5,-780.5"/>
<path fill="none" stroke="#000000" stroke-width="2" d="M198,-574.5C308.95,-571.78 228.82,-779.78 343.5,-782.5"/>
</g>
<!-- W3 -->
<g id="node10" class="node">
<title>W3</title>
<polygon fill="#ffffff" stroke="black" stroke-dasharray="5,2" points="553,-526.5 342,-526.5 342,-342.5 553,-342.5 553,-526.5"/>
<polygon fill="none" stroke="black" points="342.5,-503.5 342.5,-526.5 553.5,-526.5 553.5,-503.5 342.5,-503.5"/>
<text text-anchor="start" x="436.5" y="-511.3" font-family="arial" font-size="14.00">W3</text>
<polygon fill="none" stroke="black" points="342.5,-480.5 342.5,-503.5 368.5,-503.5 368.5,-480.5 342.5,-480.5"/>
<text text-anchor="start" x="347.5" y="-488.3" font-family="arial" font-size="14.00">4x</text>
<polygon fill="none" stroke="black" points="368.5,-480.5 368.5,-503.5 507.5,-503.5 507.5,-480.5 368.5,-480.5"/>
<text text-anchor="start" x="373" y="-488.3" font-family="arial" font-size="14.00">0.14 mm² (26 AWG)</text>
<polygon fill="none" stroke="black" points="507.5,-480.5 507.5,-503.5 553.5,-503.5 553.5,-480.5 507.5,-480.5"/>
<text text-anchor="start" x="512" y="-488.3" font-family="arial" font-size="14.00">0.3 m</text>
<text text-anchor="start" x="378" y="-467.3" font-family="arial" font-size="14.00"> </text>
<text text-anchor="start" x="347" y="-448.3" font-family="arial" font-size="14.00">X1:1:GND</text>
<text text-anchor="start" x="421" y="-448.3" font-family="arial" font-size="14.00"> &#160;&#160;&#160;&#160;BK &#160;&#160;&#160;</text>
<text text-anchor="start" x="483" y="-448.3" font-family="arial" font-size="14.00">X4:1:GND</text>
<polygon fill="#000000" stroke="none" points="342.5,-440.5 342.5,-442.5 553.5,-442.5 553.5,-440.5 342.5,-440.5"/>
<polygon fill="#000000" stroke="none" points="342.5,-438.5 342.5,-440.5 553.5,-440.5 553.5,-438.5 342.5,-438.5"/>
<polygon fill="#000000" stroke="none" points="342.5,-436.5 342.5,-438.5 553.5,-438.5 553.5,-436.5 342.5,-436.5"/>
<text text-anchor="start" x="344.5" y="-423.3" font-family="arial" font-size="14.00">X1:5:MISO</text>
<text text-anchor="start" x="421" y="-423.3" font-family="arial" font-size="14.00"> &#160;&#160;&#160;&#160;BU &#160;&#160;&#160;</text>
<text text-anchor="start" x="480.5" y="-423.3" font-family="arial" font-size="14.00">X4:3:MISO</text>
<polygon fill="#000000" stroke="none" points="342.5,-415.5 342.5,-417.5 553.5,-417.5 553.5,-415.5 342.5,-415.5"/>
<polygon fill="#0066ff" stroke="none" points="342.5,-413.5 342.5,-415.5 553.5,-415.5 553.5,-413.5 342.5,-413.5"/>
<polygon fill="#000000" stroke="none" points="342.5,-411.5 342.5,-413.5 553.5,-413.5 553.5,-411.5 342.5,-411.5"/>
<text text-anchor="start" x="344.5" y="-398.3" font-family="arial" font-size="14.00">X1:6:MOSI</text>
<text text-anchor="start" x="419.5" y="-398.3" font-family="arial" font-size="14.00"> &#160;&#160;&#160;&#160;OG &#160;&#160;&#160;</text>
<text text-anchor="start" x="480.5" y="-398.3" font-family="arial" font-size="14.00">X4:4:MOSI</text>
<polygon fill="#000000" stroke="none" points="342.5,-390.5 342.5,-392.5 553.5,-392.5 553.5,-390.5 342.5,-390.5"/>
<polygon fill="#ff8000" stroke="none" points="342.5,-388.5 342.5,-390.5 553.5,-390.5 553.5,-388.5 342.5,-388.5"/>
<polygon fill="#000000" stroke="none" points="342.5,-386.5 342.5,-388.5 553.5,-388.5 553.5,-386.5 342.5,-386.5"/>
<text text-anchor="start" x="348" y="-373.3" font-family="arial" font-size="14.00">X1:7:SCK</text>
<text text-anchor="start" x="421.5" y="-373.3" font-family="arial" font-size="14.00"> &#160;&#160;&#160;&#160;VT &#160;&#160;&#160;</text>
<text text-anchor="start" x="484" y="-373.3" font-family="arial" font-size="14.00">X4:5:SCK</text>
<polygon fill="#000000" stroke="none" points="342.5,-365.5 342.5,-367.5 553.5,-367.5 553.5,-365.5 342.5,-365.5"/>
<polygon fill="#8000ff" stroke="none" points="342.5,-363.5 342.5,-365.5 553.5,-365.5 553.5,-363.5 342.5,-363.5"/>
<polygon fill="#000000" stroke="none" points="342.5,-361.5 342.5,-363.5 553.5,-363.5 553.5,-361.5 342.5,-361.5"/>
<text text-anchor="start" x="378" y="-348.3" font-family="arial" font-size="14.00"> </text>
</g>
<!-- X1&#45;&#45;W3 -->
<g id="edge17" class="edge">
<title>X1:e&#45;&#45;W3:w</title>
<path fill="none" stroke="#000000" stroke-width="2" d="M198,-639.5C306.38,-642.21 229.88,-440.21 342,-437.5"/>
<path fill="none" stroke="#000000" stroke-width="2" d="M198,-641.5C308.25,-641.5 231.75,-439.5 342,-439.5"/>
<path fill="none" stroke="#000000" stroke-width="2" d="M198,-643.5C310.12,-640.79 233.62,-438.79 342,-441.5"/>
</g>
<!-- X1&#45;&#45;W3 -->
<g id="edge19" class="edge">
<title>X1:e&#45;&#45;W3:w</title>
<path fill="none" stroke="#000000" stroke-width="2" d="M198,-546.5C283.47,-548.95 252.63,-414.95 342,-412.5"/>
<path fill="none" stroke="#0066ff" stroke-width="2" d="M198,-548.5C285.42,-548.5 254.58,-414.5 342,-414.5"/>
<path fill="none" stroke="#000000" stroke-width="2" d="M198,-550.5C287.37,-548.05 256.53,-414.05 342,-416.5"/>
</g>
<!-- X1&#45;&#45;W3 -->
<g id="edge21" class="edge">
<title>X1:e&#45;&#45;W3:w</title>
<path fill="none" stroke="#000000" stroke-width="2" d="M198,-523.5C284.08,-525.96 252.02,-389.96 342,-387.5"/>
<path fill="none" stroke="#ff8000" stroke-width="2" d="M198,-525.5C286.03,-525.5 253.97,-389.5 342,-389.5"/>
<path fill="none" stroke="#000000" stroke-width="2" d="M198,-527.5C287.98,-525.04 255.92,-389.04 342,-391.5"/>
</g>
<!-- X1&#45;&#45;W3 -->
<g id="edge23" class="edge">
<title>X1:e&#45;&#45;W3:w</title>
<path fill="none" stroke="#000000" stroke-width="2" d="M198,-500.5C284.7,-502.97 251.41,-364.97 342,-362.5"/>
<path fill="none" stroke="#8000ff" stroke-width="2" d="M198,-502.5C286.64,-502.5 253.36,-364.5 342,-364.5"/>
<path fill="none" stroke="#000000" stroke-width="2" d="M198,-504.5C288.59,-502.03 255.3,-364.03 342,-366.5"/>
</g>
<!-- W5 -->
<g id="node12" class="node">
<title>W5</title>
<polygon fill="#ffffff" stroke="black" points="553,-318 342,-318 342,-159 553,-159 553,-318"/>
<polygon fill="none" stroke="black" points="342.5,-294.5 342.5,-317.5 553.5,-317.5 553.5,-294.5 342.5,-294.5"/>
<text text-anchor="start" x="436.5" y="-302.3" font-family="arial" font-size="14.00">W5</text>
<polygon fill="none" stroke="black" points="342.5,-271.5 342.5,-294.5 391.5,-294.5 391.5,-271.5 342.5,-271.5"/>
<text text-anchor="start" x="359" y="-279.3" font-family="arial" font-size="14.00">3x</text>
<polygon fill="none" stroke="black" points="391.5,-271.5 391.5,-294.5 484.5,-294.5 484.5,-271.5 391.5,-271.5"/>
<text text-anchor="start" x="407.5" y="-279.3" font-family="arial" font-size="14.00">0.25 mm²</text>
<polygon fill="none" stroke="black" points="484.5,-271.5 484.5,-294.5 553.5,-294.5 553.5,-271.5 484.5,-271.5"/>
<text text-anchor="start" x="500.5" y="-279.3" font-family="arial" font-size="14.00">0.2 m</text>
<text text-anchor="start" x="375.5" y="-258.3" font-family="arial" font-size="14.00"> </text>
<text text-anchor="start" x="344.5" y="-239.3" font-family="arial" font-size="14.00">X1:1:GND</text>
<text text-anchor="start" x="415" y="-239.3" font-family="arial" font-size="14.00"> &#160;&#160;&#160;&#160;1:BK &#160;&#160;&#160;</text>
<text text-anchor="start" x="485.5" y="-239.3" font-family="arial" font-size="14.00">X5:1:GND</text>
<polygon fill="#000000" stroke="none" points="342.5,-231.5 342.5,-233.5 553.5,-233.5 553.5,-231.5 342.5,-231.5"/>
<polygon fill="#000000" stroke="none" points="342.5,-229.5 342.5,-231.5 553.5,-231.5 553.5,-229.5 342.5,-229.5"/>
<polygon fill="#000000" stroke="none" points="342.5,-227.5 342.5,-229.5 553.5,-229.5 553.5,-227.5 342.5,-227.5"/>
<text text-anchor="start" x="351" y="-214.3" font-family="arial" font-size="14.00">X1:9:TX</text>
<text text-anchor="start" x="414.5" y="-214.3" font-family="arial" font-size="14.00"> &#160;&#160;&#160;&#160;2:RD &#160;&#160;&#160;</text>
<text text-anchor="start" x="492" y="-214.3" font-family="arial" font-size="14.00">X5:2:TX</text>
<polygon fill="#000000" stroke="none" points="342.5,-206.5 342.5,-208.5 553.5,-208.5 553.5,-206.5 342.5,-206.5"/>
<polygon fill="#ff0000" stroke="none" points="342.5,-204.5 342.5,-206.5 553.5,-206.5 553.5,-204.5 342.5,-204.5"/>
<polygon fill="#000000" stroke="none" points="342.5,-202.5 342.5,-204.5 553.5,-204.5 553.5,-202.5 342.5,-202.5"/>
<text text-anchor="start" x="346" y="-189.3" font-family="arial" font-size="14.00">X1:10:RX</text>
<text text-anchor="start" x="415.5" y="-189.3" font-family="arial" font-size="14.00"> &#160;&#160;&#160;&#160;3:YE &#160;&#160;&#160;</text>
<text text-anchor="start" x="491" y="-189.3" font-family="arial" font-size="14.00">X5:3:RX</text>
<polygon fill="#000000" stroke="none" points="342.5,-181.5 342.5,-183.5 553.5,-183.5 553.5,-181.5 342.5,-181.5"/>
<polygon fill="#ffff00" stroke="none" points="342.5,-179.5 342.5,-181.5 553.5,-181.5 553.5,-179.5 342.5,-179.5"/>
<polygon fill="#000000" stroke="none" points="342.5,-177.5 342.5,-179.5 553.5,-179.5 553.5,-177.5 342.5,-177.5"/>
<text text-anchor="start" x="375.5" y="-164.3" font-family="arial" font-size="14.00"> </text>
</g>
<!-- X1&#45;&#45;W5 -->
<g id="edge29" class="edge">
<title>X1:e&#45;&#45;W5:w</title>
<path fill="none" stroke="#000000" stroke-width="2" d="M198,-639.5C389.83,-642.52 146.72,-231.52 342,-228.5"/>
<path fill="none" stroke="#000000" stroke-width="2" d="M198,-641.5C391.55,-641.5 148.45,-230.5 342,-230.5"/>
<path fill="none" stroke="#000000" stroke-width="2" d="M198,-643.5C393.28,-640.48 150.17,-229.48 342,-232.5"/>
</g>
<!-- X1&#45;&#45;W5 -->
<g id="edge31" class="edge">
<title>X1:e&#45;&#45;W5:w</title>
<path fill="none" stroke="#000000" stroke-width="2" d="M198,-454.5C324.79,-457.32 211.57,-206.32 342,-203.5"/>
<path fill="none" stroke="#ff0000" stroke-width="2" d="M198,-456.5C326.61,-456.5 213.39,-205.5 342,-205.5"/>
<path fill="none" stroke="#000000" stroke-width="2" d="M198,-458.5C328.43,-455.68 215.21,-204.68 342,-207.5"/>
</g>
<!-- X1&#45;&#45;W5 -->
<g id="edge33" class="edge">
<title>X1:e&#45;&#45;W5:w</title>
<path fill="none" stroke="#000000" stroke-width="2" d="M198,-431.5C325.56,-434.33 210.8,-181.33 342,-178.5"/>
<path fill="none" stroke="#ffff00" stroke-width="2" d="M198,-433.5C327.38,-433.5 212.62,-180.5 342,-180.5"/>
<path fill="none" stroke="#000000" stroke-width="2" d="M198,-435.5C329.2,-432.67 214.44,-179.67 342,-182.5"/>
</g>
<!-- X2 -->
<g id="node2" class="node">
<title>X2</title>
<polygon fill="#ffffff" stroke="black" points="887,-702.5 697,-702.5 697,-564.5 887,-564.5 887,-702.5"/>
<polygon fill="none" stroke="black" points="697,-679.5 697,-702.5 887,-702.5 887,-679.5 697,-679.5"/>
<text text-anchor="start" x="782.5" y="-687.3" font-family="arial" font-size="14.00">X2</text>
<polygon fill="none" stroke="black" points="697,-656.5 697,-679.5 795,-679.5 795,-656.5 697,-656.5"/>
<text text-anchor="start" x="701" y="-664.3" font-family="arial" font-size="14.00">Molex KK 254</text>
<polygon fill="none" stroke="black" points="795,-656.5 795,-679.5 847,-679.5 847,-656.5 795,-656.5"/>
<text text-anchor="start" x="799" y="-664.3" font-family="arial" font-size="14.00">female</text>
<polygon fill="none" stroke="black" points="847,-656.5 847,-679.5 887,-679.5 887,-656.5 847,-656.5"/>
<text text-anchor="start" x="851" y="-664.3" font-family="arial" font-size="14.00">4&#45;pin</text>
<polygon fill="none" stroke="black" points="697,-633.5 697,-656.5 781,-656.5 781,-633.5 697,-633.5"/>
<text text-anchor="start" x="734.5" y="-641.3" font-family="arial" font-size="14.00">1</text>
<polygon fill="none" stroke="black" points="781,-633.5 781,-656.5 887,-656.5 887,-633.5 781,-633.5"/>
<text text-anchor="start" x="818" y="-641.3" font-family="arial" font-size="14.00">GND</text>
<polygon fill="none" stroke="black" points="697,-610.5 697,-633.5 781,-633.5 781,-610.5 697,-610.5"/>
<text text-anchor="start" x="734.5" y="-618.3" font-family="arial" font-size="14.00">2</text>
<polygon fill="none" stroke="black" points="781,-610.5 781,-633.5 887,-633.5 887,-610.5 781,-610.5"/>
<text text-anchor="start" x="820.5" y="-618.3" font-family="arial" font-size="14.00">+5V</text>
<polygon fill="none" stroke="black" points="697,-587.5 697,-610.5 781,-610.5 781,-587.5 697,-587.5"/>
<text text-anchor="start" x="734.5" y="-595.3" font-family="arial" font-size="14.00">3</text>
<polygon fill="none" stroke="black" points="781,-587.5 781,-610.5 887,-610.5 887,-587.5 781,-587.5"/>
<text text-anchor="start" x="819.5" y="-595.3" font-family="arial" font-size="14.00">SCL</text>
<polygon fill="none" stroke="black" points="697,-564.5 697,-587.5 781,-587.5 781,-564.5 697,-564.5"/>
<text text-anchor="start" x="734.5" y="-572.3" font-family="arial" font-size="14.00">4</text>
<polygon fill="none" stroke="black" points="781,-564.5 781,-587.5 887,-587.5 887,-564.5 781,-564.5"/>
<text text-anchor="start" x="818.5" y="-572.3" font-family="arial" font-size="14.00">SDA</text>
</g>
<!-- X3 -->
<g id="node3" class="node">
<title>X3</title>
<polygon fill="#ffffff" stroke="black" points="887,-910.5 697,-910.5 697,-772.5 887,-772.5 887,-910.5"/>
<polygon fill="none" stroke="black" points="697,-887.5 697,-910.5 887,-910.5 887,-887.5 697,-887.5"/>
<text text-anchor="start" x="782.5" y="-895.3" font-family="arial" font-size="14.00">X3</text>
<polygon fill="none" stroke="black" points="697,-864.5 697,-887.5 795,-887.5 795,-864.5 697,-864.5"/>
<text text-anchor="start" x="701" y="-872.3" font-family="arial" font-size="14.00">Molex KK 254</text>
<polygon fill="none" stroke="black" points="795,-864.5 795,-887.5 847,-887.5 847,-864.5 795,-864.5"/>
<text text-anchor="start" x="799" y="-872.3" font-family="arial" font-size="14.00">female</text>
<polygon fill="none" stroke="black" points="847,-864.5 847,-887.5 887,-887.5 887,-864.5 847,-864.5"/>
<text text-anchor="start" x="851" y="-872.3" font-family="arial" font-size="14.00">4&#45;pin</text>
<polygon fill="none" stroke="black" points="697,-841.5 697,-864.5 781,-864.5 781,-841.5 697,-841.5"/>
<text text-anchor="start" x="734.5" y="-849.3" font-family="arial" font-size="14.00">1</text>
<polygon fill="none" stroke="black" points="781,-841.5 781,-864.5 887,-864.5 887,-841.5 781,-841.5"/>
<text text-anchor="start" x="818" y="-849.3" font-family="arial" font-size="14.00">GND</text>
<polygon fill="none" stroke="black" points="697,-818.5 697,-841.5 781,-841.5 781,-818.5 697,-818.5"/>
<text text-anchor="start" x="734.5" y="-826.3" font-family="arial" font-size="14.00">2</text>
<polygon fill="none" stroke="black" points="781,-818.5 781,-841.5 887,-841.5 887,-818.5 781,-818.5"/>
<text text-anchor="start" x="820.5" y="-826.3" font-family="arial" font-size="14.00">+5V</text>
<polygon fill="none" stroke="black" points="697,-795.5 697,-818.5 781,-818.5 781,-795.5 697,-795.5"/>
<text text-anchor="start" x="734.5" y="-803.3" font-family="arial" font-size="14.00">3</text>
<polygon fill="none" stroke="black" points="781,-795.5 781,-818.5 887,-818.5 887,-795.5 781,-795.5"/>
<text text-anchor="start" x="819.5" y="-803.3" font-family="arial" font-size="14.00">SCL</text>
<polygon fill="none" stroke="black" points="697,-772.5 697,-795.5 781,-795.5 781,-772.5 697,-772.5"/>
<text text-anchor="start" x="734.5" y="-780.3" font-family="arial" font-size="14.00">4</text>
<polygon fill="none" stroke="black" points="781,-772.5 781,-795.5 887,-795.5 887,-772.5 781,-772.5"/>
<text text-anchor="start" x="818.5" y="-780.3" font-family="arial" font-size="14.00">SDA</text>
</g>
<!-- X4 -->
<g id="node4" class="node">
<title>X4</title>
<polygon fill="#ffffff" stroke="black" points="887,-506 697,-506 697,-345 887,-345 887,-506"/>
<polygon fill="none" stroke="black" points="697,-482.5 697,-505.5 887,-505.5 887,-482.5 697,-482.5"/>
<text text-anchor="start" x="782.5" y="-490.3" font-family="arial" font-size="14.00">X4</text>
<polygon fill="none" stroke="black" points="697,-459.5 697,-482.5 795,-482.5 795,-459.5 697,-459.5"/>
<text text-anchor="start" x="701" y="-467.3" font-family="arial" font-size="14.00">Molex KK 254</text>
<polygon fill="none" stroke="black" points="795,-459.5 795,-482.5 847,-482.5 847,-459.5 795,-459.5"/>
<text text-anchor="start" x="799" y="-467.3" font-family="arial" font-size="14.00">female</text>
<polygon fill="none" stroke="black" points="847,-459.5 847,-482.5 887,-482.5 887,-459.5 847,-459.5"/>
<text text-anchor="start" x="851" y="-467.3" font-family="arial" font-size="14.00">5&#45;pin</text>
<polygon fill="none" stroke="black" points="697,-436.5 697,-459.5 778,-459.5 778,-436.5 697,-436.5"/>
<text text-anchor="start" x="733" y="-444.3" font-family="arial" font-size="14.00">1</text>
<polygon fill="none" stroke="black" points="778,-436.5 778,-459.5 887,-459.5 887,-436.5 778,-436.5"/>
<text text-anchor="start" x="816.5" y="-444.3" font-family="arial" font-size="14.00">GND</text>
<polygon fill="none" stroke="black" points="697,-413.5 697,-436.5 778,-436.5 778,-413.5 697,-413.5"/>
<text text-anchor="start" x="733" y="-421.3" font-family="arial" font-size="14.00">2</text>
<polygon fill="none" stroke="black" points="778,-413.5 778,-436.5 887,-436.5 887,-413.5 778,-413.5"/>
<text text-anchor="start" x="815" y="-421.3" font-family="arial" font-size="14.00">+12V</text>
<polygon fill="none" stroke="black" points="697,-390.5 697,-413.5 778,-413.5 778,-390.5 697,-390.5"/>
<text text-anchor="start" x="733" y="-398.3" font-family="arial" font-size="14.00">3</text>
<polygon fill="none" stroke="black" points="778,-390.5 778,-413.5 887,-413.5 887,-390.5 778,-390.5"/>
<text text-anchor="start" x="814" y="-398.3" font-family="arial" font-size="14.00">MISO</text>
<polygon fill="none" stroke="black" points="697,-367.5 697,-390.5 778,-390.5 778,-367.5 697,-367.5"/>
<text text-anchor="start" x="733" y="-375.3" font-family="arial" font-size="14.00">4</text>
<polygon fill="none" stroke="black" points="778,-367.5 778,-390.5 887,-390.5 887,-367.5 778,-367.5"/>
<text text-anchor="start" x="814" y="-375.3" font-family="arial" font-size="14.00">MOSI</text>
<polygon fill="none" stroke="black" points="697,-344.5 697,-367.5 778,-367.5 778,-344.5 697,-344.5"/>
<text text-anchor="start" x="733" y="-352.3" font-family="arial" font-size="14.00">5</text>
<polygon fill="none" stroke="black" points="778,-344.5 778,-367.5 887,-367.5 887,-344.5 778,-344.5"/>
<text text-anchor="start" x="817" y="-352.3" font-family="arial" font-size="14.00">SCK</text>
</g>
<!-- X5 -->
<g id="node5" class="node">
<title>X5</title>
<polygon fill="#ffffff" stroke="black" points="820.5,-287 763.5,-287 763.5,-172 820.5,-172 820.5,-287"/>
<polygon fill="none" stroke="black" points="764,-263.5 764,-286.5 821,-286.5 821,-263.5 764,-263.5"/>
<text text-anchor="start" x="783" y="-271.3" font-family="arial" font-size="14.00">X5</text>
<polygon fill="none" stroke="black" points="764,-240.5 764,-263.5 821,-263.5 821,-240.5 764,-240.5"/>
<text text-anchor="start" x="776.5" y="-248.3" font-family="arial" font-size="14.00">3&#45;pin</text>
<polygon fill="none" stroke="black" points="764,-217.5 764,-240.5 781,-240.5 781,-217.5 764,-217.5"/>
<text text-anchor="start" x="768" y="-225.3" font-family="arial" font-size="14.00">1</text>
<polygon fill="none" stroke="black" points="781,-217.5 781,-240.5 821,-240.5 821,-217.5 781,-217.5"/>
<text text-anchor="start" x="785" y="-225.3" font-family="arial" font-size="14.00">GND</text>
<polygon fill="none" stroke="black" points="764,-194.5 764,-217.5 781,-217.5 781,-194.5 764,-194.5"/>
<text text-anchor="start" x="768" y="-202.3" font-family="arial" font-size="14.00">2</text>
<polygon fill="none" stroke="black" points="781,-194.5 781,-217.5 821,-217.5 821,-194.5 781,-194.5"/>
<text text-anchor="start" x="791.5" y="-202.3" font-family="arial" font-size="14.00">TX</text>
<polygon fill="none" stroke="black" points="764,-171.5 764,-194.5 781,-194.5 781,-171.5 764,-171.5"/>
<text text-anchor="start" x="768" y="-179.3" font-family="arial" font-size="14.00">3</text>
<polygon fill="none" stroke="black" points="781,-171.5 781,-194.5 821,-194.5 821,-171.5 781,-171.5"/>
<text text-anchor="start" x="790.5" y="-179.3" font-family="arial" font-size="14.00">RX</text>
</g>
<!-- _ferrule_crimp_1 -->
<g id="node6" class="node">
<title>_ferrule_crimp_1</title>
<polygon fill="#ffffff" stroke="black" points="196.5,-70 1.5,-70 1.5,-47 196.5,-47 196.5,-70"/>
<polygon fill="none" stroke="black" points="2,-46.5 2,-69.5 93,-69.5 93,-46.5 2,-46.5"/>
<text text-anchor="start" x="6" y="-54.3" font-family="arial" font-size="14.00">Crimp ferrule</text>
<polygon fill="none" stroke="black" points="93,-46.5 93,-69.5 162,-69.5 162,-46.5 93,-46.5"/>
<text text-anchor="start" x="97" y="-54.3" font-family="arial" font-size="14.00">0.25 mm²</text>
<polygon fill="none" stroke="black" points="162,-46.5 162,-69.5 189,-69.5 189,-46.5 162,-46.5"/>
<text text-anchor="start" x="166" y="-54.3" font-family="arial" font-size="14.00">YE</text>
<polygon fill="#ffff00" stroke="none" points="189,-46.5 189,-69.5 197,-69.5 197,-46.5 189,-46.5"/>
<polygon fill="none" stroke="black" points="189,-46.5 189,-69.5 197,-69.5 197,-46.5 189,-46.5"/>
</g>
<!-- W4 -->
<g id="node11" class="node">
<title>W4</title>
<polygon fill="#ffffff" stroke="black" points="551,-134.5 344,-134.5 344,-0.5 551,-0.5 551,-134.5"/>
<polygon fill="none" stroke="black" points="344.5,-111.5 344.5,-134.5 551.5,-134.5 551.5,-111.5 344.5,-111.5"/>
<text text-anchor="start" x="436.5" y="-119.3" font-family="arial" font-size="14.00">W4</text>
<polygon fill="none" stroke="black" points="344.5,-88.5 344.5,-111.5 368.5,-111.5 368.5,-88.5 344.5,-88.5"/>
<text text-anchor="start" x="348.5" y="-96.3" font-family="arial" font-size="14.00">2x</text>
<polygon fill="none" stroke="black" points="368.5,-88.5 368.5,-111.5 506.5,-111.5 506.5,-88.5 368.5,-88.5"/>
<text text-anchor="start" x="372.5" y="-96.3" font-family="arial" font-size="14.00">0.25 mm² (24 AWG)</text>
<polygon fill="none" stroke="black" points="506.5,-88.5 506.5,-111.5 551.5,-111.5 551.5,-88.5 506.5,-88.5"/>
<text text-anchor="start" x="510.5" y="-96.3" font-family="arial" font-size="14.00">0.3 m</text>
<text text-anchor="start" x="356" y="-75.3" font-family="arial" font-size="14.00"> </text>
<text text-anchor="start" x="383" y="-56.3" font-family="arial" font-size="14.00"> &#160;&#160;&#160;&#160;1:BK &#160;&#160;&#160;</text>
<text text-anchor="start" x="473" y="-56.3" font-family="arial" font-size="14.00">X4:1:GND</text>
<polygon fill="#000000" stroke="none" points="344.5,-48.5 344.5,-50.5 551.5,-50.5 551.5,-48.5 344.5,-48.5"/>
<polygon fill="#000000" stroke="none" points="344.5,-46.5 344.5,-48.5 551.5,-48.5 551.5,-46.5 344.5,-46.5"/>
<polygon fill="#000000" stroke="none" points="344.5,-44.5 344.5,-46.5 551.5,-46.5 551.5,-44.5 344.5,-44.5"/>
<text text-anchor="start" x="382.5" y="-31.3" font-family="arial" font-size="14.00"> &#160;&#160;&#160;&#160;2:RD &#160;&#160;&#160;</text>
<text text-anchor="start" x="471.5" y="-31.3" font-family="arial" font-size="14.00">X4:2:+12V</text>
<polygon fill="#000000" stroke="none" points="344.5,-23.5 344.5,-25.5 551.5,-25.5 551.5,-23.5 344.5,-23.5"/>
<polygon fill="#ff0000" stroke="none" points="344.5,-21.5 344.5,-23.5 551.5,-23.5 551.5,-21.5 344.5,-21.5"/>
<polygon fill="#000000" stroke="none" points="344.5,-19.5 344.5,-21.5 551.5,-21.5 551.5,-19.5 344.5,-19.5"/>
<text text-anchor="start" x="356" y="-6.3" font-family="arial" font-size="14.00"> </text>
</g>
<!-- _ferrule_crimp_1&#45;&#45;W4 -->
<g id="edge25" class="edge">
<title>_ferrule_crimp_1:e&#45;&#45;W4:w</title>
<path fill="none" stroke="#000000" stroke-width="2" d="M198,-56.5C261.71,-56.86 277.51,-45.86 343.5,-45.5"/>
<path fill="none" stroke="#000000" stroke-width="2" d="M198,-58.5C262.85,-58.5 278.65,-47.5 343.5,-47.5"/>
<path fill="none" stroke="#000000" stroke-width="2" d="M198,-60.5C263.99,-60.14 279.79,-49.14 343.5,-49.5"/>
</g>
<!-- _ferrule_crimp_2 -->
<g id="node7" class="node">
<title>_ferrule_crimp_2</title>
<polygon fill="#ffffff" stroke="black" points="196.5,-23 1.5,-23 1.5,0 196.5,0 196.5,-23"/>
<polygon fill="none" stroke="black" points="2,0.5 2,-22.5 93,-22.5 93,0.5 2,0.5"/>
<text text-anchor="start" x="6" y="-7.3" font-family="arial" font-size="14.00">Crimp ferrule</text>
<polygon fill="none" stroke="black" points="93,0.5 93,-22.5 162,-22.5 162,0.5 93,0.5"/>
<text text-anchor="start" x="97" y="-7.3" font-family="arial" font-size="14.00">0.25 mm²</text>
<polygon fill="none" stroke="black" points="162,0.5 162,-22.5 189,-22.5 189,0.5 162,0.5"/>
<text text-anchor="start" x="166" y="-7.3" font-family="arial" font-size="14.00">YE</text>
<polygon fill="#ffff00" stroke="none" points="189,0.5 189,-22.5 197,-22.5 197,0.5 189,0.5"/>
<polygon fill="none" stroke="black" points="189,0.5 189,-22.5 197,-22.5 197,0.5 189,0.5"/>
</g>
<!-- _ferrule_crimp_2&#45;&#45;W4 -->
<g id="edge27" class="edge">
<title>_ferrule_crimp_2:e&#45;&#45;W4:w</title>
<path fill="none" stroke="#000000" stroke-width="2" d="M198,-9.5C263.99,-9.86 279.79,-20.86 343.5,-20.5"/>
<path fill="none" stroke="#ff0000" stroke-width="2" d="M198,-11.5C262.85,-11.5 278.65,-22.5 343.5,-22.5"/>
<path fill="none" stroke="#000000" stroke-width="2" d="M198,-13.5C261.71,-13.14 277.51,-24.14 343.5,-24.5"/>
</g>
<!-- W1&#45;&#45;X2 -->
<g id="edge2" class="edge">
<title>W1:e&#45;&#45;X2:w</title>
<path fill="none" stroke="#000000" stroke-width="2" d="M552.5,-645.5C616.48,-645.52 632.52,-643.52 697,-643.5"/>
<path fill="none" stroke="#000000" stroke-width="2" d="M552.5,-647.5C616.73,-647.5 632.77,-645.5 697,-645.5"/>
<path fill="none" stroke="#000000" stroke-width="2" d="M552.5,-649.5C616.98,-649.48 633.02,-647.48 697,-647.5"/>
</g>
<!-- W1&#45;&#45;X2 -->
<g id="edge4" class="edge">
<title>W1:e&#45;&#45;X2:w</title>
<path fill="none" stroke="#000000" stroke-width="2" d="M552.5,-620.5C616.6,-620.5 632.65,-619.5 697,-619.5"/>
<path fill="none" stroke="#ff0000" stroke-width="2" d="M552.5,-622.5C616.72,-622.5 632.78,-621.5 697,-621.5"/>
<path fill="none" stroke="#000000" stroke-width="2" d="M552.5,-624.5C616.85,-624.5 632.9,-623.5 697,-623.5"/>
</g>
<!-- W1&#45;&#45;X2 -->
<g id="edge6" class="edge">
<title>W1:e&#45;&#45;X2:w</title>
<path fill="none" stroke="#000000" stroke-width="2" d="M552.5,-595.5C616.85,-595.5 632.9,-596.5 697,-596.5"/>
<path fill="none" stroke="#ffff00" stroke-width="2" d="M552.5,-597.5C616.72,-597.5 632.78,-598.5 697,-598.5"/>
<path fill="none" stroke="#000000" stroke-width="2" d="M552.5,-599.5C616.6,-599.5 632.65,-600.5 697,-600.5"/>
</g>
<!-- W1&#45;&#45;X2 -->
<g id="edge8" class="edge">
<title>W1:e&#45;&#45;X2:w</title>
<path fill="none" stroke="#000000" stroke-width="2" d="M552.5,-570.5C617.1,-570.53 633.13,-573.53 697,-573.5"/>
<path fill="none" stroke="#00ff00" stroke-width="2" d="M552.5,-572.5C616.74,-572.5 632.76,-575.5 697,-575.5"/>
<path fill="none" stroke="#000000" stroke-width="2" d="M552.5,-574.5C616.37,-574.47 632.4,-577.47 697,-577.5"/>
</g>
<!-- W2&#45;&#45;X3 -->
<g id="edge10" class="edge">
<title>W2:e&#45;&#45;X3:w</title>
<path fill="none" stroke="#000000" stroke-width="2" d="M552.5,-853.5C616.48,-853.52 632.52,-851.52 697,-851.5"/>
<path fill="none" stroke="#000000" stroke-width="2" d="M552.5,-855.5C616.73,-855.5 632.77,-853.5 697,-853.5"/>
<path fill="none" stroke="#000000" stroke-width="2" d="M552.5,-857.5C616.98,-857.48 633.02,-855.48 697,-855.5"/>
</g>
<!-- W2&#45;&#45;X3 -->
<g id="edge12" class="edge">
<title>W2:e&#45;&#45;X3:w</title>
<path fill="none" stroke="#000000" stroke-width="2" d="M552.5,-828.5C616.6,-828.5 632.65,-827.5 697,-827.5"/>
<path fill="none" stroke="#ff0000" stroke-width="2" d="M552.5,-830.5C616.72,-830.5 632.78,-829.5 697,-829.5"/>
<path fill="none" stroke="#000000" stroke-width="2" d="M552.5,-832.5C616.85,-832.5 632.9,-831.5 697,-831.5"/>
</g>
<!-- W2&#45;&#45;X3 -->
<g id="edge14" class="edge">
<title>W2:e&#45;&#45;X3:w</title>
<path fill="none" stroke="#000000" stroke-width="2" d="M552.5,-803.5C616.85,-803.5 632.9,-804.5 697,-804.5"/>
<path fill="none" stroke="#ffff00" stroke-width="2" d="M552.5,-805.5C616.72,-805.5 632.78,-806.5 697,-806.5"/>
<path fill="none" stroke="#000000" stroke-width="2" d="M552.5,-807.5C616.6,-807.5 632.65,-808.5 697,-808.5"/>
</g>
<!-- W2&#45;&#45;X3 -->
<g id="edge16" class="edge">
<title>W2:e&#45;&#45;X3:w</title>
<path fill="none" stroke="#000000" stroke-width="2" d="M552.5,-778.5C617.1,-778.53 633.13,-781.53 697,-781.5"/>
<path fill="none" stroke="#00ff00" stroke-width="2" d="M552.5,-780.5C616.74,-780.5 632.76,-783.5 697,-783.5"/>
<path fill="none" stroke="#000000" stroke-width="2" d="M552.5,-782.5C616.37,-782.47 632.4,-785.47 697,-785.5"/>
</g>
<!-- W3&#45;&#45;X4 -->
<g id="edge18" class="edge">
<title>W3:e&#45;&#45;X4:w</title>
<path fill="none" stroke="#000000" stroke-width="2" d="M553,-437.5C618.12,-437.76 633.87,-446.76 697,-446.5"/>
<path fill="none" stroke="#000000" stroke-width="2" d="M553,-439.5C617.12,-439.5 632.88,-448.5 697,-448.5"/>
<path fill="none" stroke="#000000" stroke-width="2" d="M553,-441.5C616.13,-441.24 631.88,-450.24 697,-450.5"/>
</g>
<!-- W3&#45;&#45;X4 -->
<g id="edge20" class="edge">
<title>W3:e&#45;&#45;X4:w</title>
<path fill="none" stroke="#000000" stroke-width="2" d="M553,-412.5C615.97,-412.97 631.45,-399.97 697,-399.5"/>
<path fill="none" stroke="#0066ff" stroke-width="2" d="M553,-414.5C617.26,-414.5 632.74,-401.5 697,-401.5"/>
<path fill="none" stroke="#000000" stroke-width="2" d="M553,-416.5C618.55,-416.03 634.03,-403.03 697,-403.5"/>
</g>
<!-- W3&#45;&#45;X4 -->
<g id="edge22" class="edge">
<title>W3:e&#45;&#45;X4:w</title>
<path fill="none" stroke="#000000" stroke-width="2" d="M553,-387.5C616.04,-387.86 631.66,-376.86 697,-376.5"/>
<path fill="none" stroke="#ff8000" stroke-width="2" d="M553,-389.5C617.19,-389.5 632.81,-378.5 697,-378.5"/>
<path fill="none" stroke="#000000" stroke-width="2" d="M553,-391.5C618.34,-391.14 633.96,-380.14 697,-380.5"/>
</g>
<!-- W3&#45;&#45;X4 -->
<g id="edge24" class="edge">
<title>W3:e&#45;&#45;X4:w</title>
<path fill="none" stroke="#000000" stroke-width="2" d="M553,-362.5C616.13,-362.76 631.88,-353.76 697,-353.5"/>
<path fill="none" stroke="#8000ff" stroke-width="2" d="M553,-364.5C617.12,-364.5 632.88,-355.5 697,-355.5"/>
<path fill="none" stroke="#000000" stroke-width="2" d="M553,-366.5C618.12,-366.24 633.87,-357.24 697,-357.5"/>
</g>
<!-- W4&#45;&#45;X4 -->
<g id="edge26" class="edge">
<title>W4:e&#45;&#45;X4:w</title>
<path fill="none" stroke="#000000" stroke-width="2" d="M552.5,-45.5C743.67,-48.51 509.29,-449.51 697,-446.5"/>
<path fill="none" stroke="#000000" stroke-width="2" d="M552.5,-47.5C741.94,-47.5 507.56,-448.5 697,-448.5"/>
<path fill="none" stroke="#000000" stroke-width="2" d="M552.5,-49.5C740.21,-46.49 505.83,-447.49 697,-450.5"/>
</g>
<!-- W4&#45;&#45;X4 -->
<g id="edge28" class="edge">
<title>W4:e&#45;&#45;X4:w</title>
<path fill="none" stroke="#000000" stroke-width="2" d="M552.5,-20.5C744.08,-23.51 508.87,-425.51 697,-422.5"/>
<path fill="none" stroke="#ff0000" stroke-width="2" d="M552.5,-22.5C742.36,-22.5 507.14,-424.5 697,-424.5"/>
<path fill="none" stroke="#000000" stroke-width="2" d="M552.5,-24.5C740.63,-21.49 505.42,-423.49 697,-426.5"/>
</g>
<!-- W5&#45;&#45;X5 -->
<g id="edge30" class="edge">
<title>W5:e&#45;&#45;X5:w</title>
<path fill="none" stroke="#000000" stroke-width="2" d="M553,-228.5C646.17,-228.51 669.49,-226.51 763,-226.5"/>
<path fill="none" stroke="#000000" stroke-width="2" d="M553,-230.5C646.34,-230.5 669.66,-228.5 763,-228.5"/>
<path fill="none" stroke="#000000" stroke-width="2" d="M553,-232.5C646.51,-232.49 669.83,-230.49 763,-230.5"/>
</g>
<!-- W5&#45;&#45;X5 -->
<g id="edge32" class="edge">
<title>W5:e&#45;&#45;X5:w</title>
<path fill="none" stroke="#000000" stroke-width="2" d="M553,-203.5C646.33,-203.5 669.67,-203.5 763,-203.5"/>
<path fill="none" stroke="#ff0000" stroke-width="2" d="M553,-205.5C646.33,-205.5 669.67,-205.5 763,-205.5"/>
<path fill="none" stroke="#000000" stroke-width="2" d="M553,-207.5C646.33,-207.5 669.67,-207.5 763,-207.5"/>
</g>
<!-- W5&#45;&#45;X5 -->
<g id="edge34" class="edge">
<title>W5:e&#45;&#45;X5:w</title>
<path fill="none" stroke="#000000" stroke-width="2" d="M553,-178.5C646.51,-178.51 669.83,-180.51 763,-180.5"/>
<path fill="none" stroke="#ffff00" stroke-width="2" d="M553,-180.5C646.34,-180.5 669.66,-182.5 763,-182.5"/>
<path fill="none" stroke="#000000" stroke-width="2" d="M553,-182.5C646.17,-182.49 669.49,-184.49 763,-184.5"/>
</g>
</g>
</svg>
